<svg width="64" height="64" viewBox="0 0 64 64" fill="none" xmlns="http://www.w3.org/2000/svg">
  <rect width="64" height="64" rx="16" fill="#0A0B0D"/>
  <path d="M33.5 12c1.8 6.2-1.2 9.4-4.6 12.4-3.6 3.2-7.9 7-7.9 14.1C21 46.5 26.1 52 33 52c7.2 0 12-5 12-12.2 0-4.6-2.2-7.6-4.1-10-.6 1.9-1.8 3.2-3.4 3.9.8-4.3-.3-9.1-2.6-12.4-1.1-1.6-1.4-3.9-1.4-9.3z" fill="#FF6A2B"/>
  <path d="M33 44c3 0 5-2.1 5-5 0-2-1-3.4-2.1-4.7-.3 1-.9 1.7-1.8 2.1.3-2-.2-3.6-1.1-5-1.6 1.2-3 3-3 5.6 0 .4 0 .7.1 1C30.6 39.6 30 40.7 30 42c0 1.1.9 2 2 2z" fill="#FFD0B8"/>
</svg>
